<?xml version="1.0" encoding="UTF-8" standalone="no"?>
<!-- Created with Inkscape (http://www.inkscape.org/) -->

<svg
   xmlns:dc="http://purl.org/dc/elements/1.1/"
   xmlns:cc="http://creativecommons.org/ns#"
   xmlns:rdf="http://www.w3.org/1999/02/22-rdf-syntax-ns#"
   xmlns:svg="http://www.w3.org/2000/svg"
   xmlns="http://www.w3.org/2000/svg"
   xmlns:sodipodi="http://sodipodi.sourceforge.net/DTD/sodipodi-0.dtd"
   xmlns:inkscape="http://www.inkscape.org/namespaces/inkscape"
   width="512"
   height="512"
   viewBox="0 0 135.46666 135.46667"
   version="1.1"
   id="svg3893"
   inkscape:version="0.92.3 (2405546, 2018-03-11)"
   sodipodi:docname="agorakit-logo-icon-512.svg">
  <defs
     id="defs3887">
    <clipPath
       clipPathUnits="userSpaceOnUse"
       id="clipPath18">
      <path
         d="M 0,841.89 H 595.28 V 0 H 0 Z"
         id="path16"
         inkscape:connector-curvature="0" />
    </clipPath>
  </defs>
  <sodipodi:namedview
     id="base"
     pagecolor="#ffffff"
     bordercolor="#666666"
     borderopacity="1.0"
     inkscape:pageopacity="0.0"
     inkscape:pageshadow="2"
     inkscape:zoom="1.4"
     inkscape:cx="235.02209"
     inkscape:cy="256.64413"
     inkscape:document-units="mm"
     inkscape:current-layer="layer1"
     showgrid="false"
     fit-margin-top="0"
     fit-margin-left="0"
     fit-margin-right="0"
     fit-margin-bottom="0"
     inkscape:window-width="1920"
     inkscape:window-height="1020"
     inkscape:window-x="0"
     inkscape:window-y="0"
     inkscape:window-maximized="1"
     units="px"
     inkscape:pagecheckerboard="true" />
  <metadata
     id="metadata3890">
    <rdf:RDF>
      <cc:Work
         rdf:about="">
        <dc:format>image/svg+xml</dc:format>
        <dc:type
           rdf:resource="http://purl.org/dc/dcmitype/StillImage" />
        <dc:title></dc:title>
      </cc:Work>
    </rdf:RDF>
  </metadata>
  <g
     inkscape:label="Calque 1"
     inkscape:groupmode="layer"
     id="layer1"
     transform="translate(-51.570636,100.88863)">
    <rect
       style="fill:#ffffff;fill-opacity:1;stroke:none;stroke-width:8.22092056;stroke-linecap:round;stroke-linejoin:round;stroke-dasharray:16.44183961, 8.22091981, 4.1104599, 8.22091981;stroke-opacity:1;paint-order:markers stroke fill"
       id="rect978"
       width="134.16931"
       height="133.83521"
       x="52.372444"
       y="-99.858536"
       ry="20.273293" />
    <g
       id="g976"
       transform="matrix(2.0340295,0,0,2.0340295,-117.99047,86.214339)">
      <path
         d="m 128.65395,-43.55277 h -2.93831 c 0,-4.93049 -4.0108,-8.942757 -8.94129,-8.942757 -4.93049,0 -8.94276,4.012267 -8.94276,8.942757 h -2.93831 c 0,-6.55097 5.3301,-11.88107 11.88107,-11.88107 6.55097,0 11.8796,5.3301 11.8796,11.88107"
         style="fill:#231f20;fill-opacity:1;fill-rule:nonzero;stroke:none;stroke-width:1.46915674"
         id="path22"
         inkscape:connector-curvature="0" />
      <path
         d="m 116.94242,-68.531666 0.16895,0.0015 0.16896,0.0015 0.16748,0.0044 0.16895,0.0044 0.16749,0.0059 0.16748,0.0073 0.16748,0.0073 0.16749,0.0088 0.16601,0.01028 0.16749,0.01175 0.16601,0.01175 0.16602,0.01322 0.16601,0.01469 0.16455,0.01469 0.16601,0.01616 0.16455,0.01763 0.16454,0.01763 0.16455,0.02057 0.16454,0.0191 0.16308,0.02204 0.16308,0.02204 0.16454,0.02351 0.16161,0.02498 0.16308,0.02498 0.1616,0.02644 0.16308,0.02644 0.16014,0.02938 0.1616,0.02938 0.16161,0.02938 0.16014,0.03085 0.16014,0.03232 0.16014,0.03379 0.15866,0.03379 0.16014,0.03526 0.15867,0.03673 0.1572,0.03673 0.15867,0.0382 0.1572,0.03967 0.1572,0.03967 0.1572,0.04114 0.1572,0.04114 0.15573,0.04261 0.15573,0.04407 0.15573,0.04408 0.15426,0.04554 0.15573,0.04701 0.1528,0.04701 0.15426,0.04848 0.15279,0.04995 0.15426,0.04995 0.15132,0.05142 0.1528,0.05142 0.15132,0.05289 0.15132,0.05436 0.15133,0.05436 0.14985,0.05583 0.14985,0.05583 0.14986,0.0573 0.14838,0.05877 0.14986,0.05877 0.14691,0.06024 0.14839,0.06023 0.14691,0.06171 0.14692,0.06317 0.14691,0.06317 0.14545,0.06464 0.14545,0.06464 0.14544,0.06611 0.14398,0.06758 0.14398,0.06758 0.14398,0.06905 0.1425,0.06905 0.14251,0.07052 0.14251,0.07052 0.14104,0.07199 0.14104,0.07346 0.14104,0.07346 0.13957,0.07346 0.13957,0.0764 0.13957,0.07493 0.1381,0.07787 0.1381,0.0764 0.13663,0.07933 0.1381,0.07934 0.13516,0.07933 0.13663,0.0808 0.13517,0.08227 0.13516,0.08227 0.13369,0.08374 0.1337,0.08374 0.13369,0.08521 0.13222,0.08521 0.13223,0.08668 0.13075,0.08668 0.13076,0.08815 0.13075,0.08815 0.13076,0.08962 0.12781,0.08962 0.12929,0.09109 0.12782,0.09256 0.12781,0.09109 0.12635,0.09403 0.12635,0.09403 0.12635,0.09403 0.12487,0.09549 0.12488,0.0955 0.12341,0.09696 0.12341,0.09843 0.12341,0.09843 0.12194,0.09843 0.12194,0.0999 0.12047,0.0999 0.12047,0.101372 0.12047,0.101371 0.119,0.102841 0.11754,0.102841 0.11753,0.10431 0.11753,0.104311 0.11606,0.105779 0.11607,0.105779 0.11606,0.107249 0.1146,0.107248 0.11312,0.107248 0.1146,0.108718 0.11165,0.110187 0.11313,0.110187 0.11018,0.110186 0.11166,0.111656 0.11019,0.111656 0.10871,0.113125 0.10872,0.113125 0.10872,0.114594 0.10725,0.114595 0.10578,0.114594 0.10578,0.116063 0.10577,0.116064 0.10431,0.117532 0.10431,0.117533 0.10285,0.119001 0.10284,0.119002 0.10284,0.119002 0.0999,0.120471 0.10137,0.12194 0.0999,0.120471 0.0984,0.12194 0.0984,0.123409 0.097,0.123409 0.097,0.123409 0.097,0.124878 0.0955,0.124879 0.094,0.126347 0.094,0.126348 0.0926,0.126347 0.0926,0.127817 0.0925,0.127816 0.0896,0.129286 0.0911,0.129286 0.0896,0.129286 0.0882,0.130755 0.0881,0.130755 0.0867,0.130755 0.0867,0.132224 0.0852,0.133693 0.0852,0.132224 0.0837,0.133693 0.0837,0.135163 0.0823,0.133693 0.0808,0.135162 0.0808,0.136632 0.0808,0.136632 0.0793,0.136631 0.0779,0.136632 0.0779,0.1381 0.0779,0.13957 0.0749,0.138101 0.0764,0.13957 0.0735,0.141039 0.0735,0.13957 0.0734,0.141039 0.072,0.141039 0.0705,0.142508 0.0705,0.142508 0.0691,0.142509 0.0691,0.143977 0.0676,0.143977 0.0676,0.143978 0.0661,0.145446 0.0646,0.145447 0.0646,0.145446 0.0632,0.146916 0.0632,0.146915 0.0617,0.146916 0.0602,0.148385 0.0602,0.148385 0.0588,0.148385 0.0588,0.148384 0.0573,0.149854 0.0558,0.149854 0.0558,0.149854 0.0544,0.151324 0.0544,0.151323 0.0529,0.151323 0.0514,0.152792 0.0514,0.152792 0.0499,0.152793 0.0499,0.152792 0.0485,0.154261 0.047,0.154262 0.047,0.154261 0.0455,0.154262 0.0441,0.15573 0.0441,0.155731 0.0426,0.155731 0.0426,0.157199 0.0397,0.1572 0.0411,0.1572 0.0382,0.1572 0.0382,0.158669 0.0367,0.157199 0.0367,0.160138 0.0353,0.158669 0.0338,0.158669 0.0338,0.160138 0.0323,0.160138 0.0309,0.160139 0.0308,0.161607 0.0279,0.161607 0.0294,0.161607 0.0264,0.161608 0.0265,0.161607 0.0264,0.163076 0.0235,0.163077 0.0235,0.163076 0.022,0.163076 0.022,0.163077 0.0206,0.164545 0.0191,0.164546 0.0176,0.164545 0.0176,0.164546 0.0162,0.166015 0.0147,0.164545 0.0147,0.166015 0.0132,0.166015 0.0118,0.166014 0.0118,0.167484 0.0103,0.166015 0.009,0.167484 0.007,0.167484 0.007,0.167483 0.006,0.167484 0.004,0.168953 0.004,0.168953 0.001,0.167484 0.003,0.168953 v 0.160138 l -5.87663,0.01763 v -0.13957 l -0.001,-0.132224 -0.003,-0.132224 -0.003,-0.130755 -0.003,-0.130755 -0.004,-0.130755 -0.006,-0.130755 -0.006,-0.129285 -0.007,-0.130755 -0.007,-0.129286 -0.009,-0.129286 -0.0103,-0.129286 -0.009,-0.129286 -0.0118,-0.129285 -0.0118,-0.127817 -0.0132,-0.129286 -0.0132,-0.127816 -0.0132,-0.127817 -0.0162,-0.127817 -0.0147,-0.126347 -0.0176,-0.127817 -0.0162,-0.126347 -0.0191,-0.126348 -0.0191,-0.126347 -0.0191,-0.126348 -0.0206,-0.124878 -0.0206,-0.126347 -0.022,-0.124879 -0.0235,-0.124878 -0.0235,-0.124878 -0.0235,-0.12341 -0.025,-0.124878 -0.0264,-0.123409 -0.0264,-0.123409 -0.0264,-0.123409 -0.0279,-0.12341 -0.0294,-0.12194 -0.0294,-0.123409 -0.0294,-0.12194 -0.0309,-0.12194 -0.0323,-0.120471 -0.0323,-0.12194 -0.0338,-0.12047 -0.0338,-0.120471 -0.0338,-0.120471 -0.0353,-0.120471 -0.0367,-0.119002 -0.0367,-0.119001 -0.0367,-0.119002 -0.0382,-0.119002 -0.0397,-0.119001 -0.0382,-0.117533 -0.0411,-0.117533 -0.0411,-0.117532 -0.0411,-0.117533 -0.0426,-0.116063 -0.0426,-0.117533 -0.0441,-0.116063 -0.0441,-0.114594 -0.0455,-0.116064 -0.0455,-0.114594 -0.047,-0.114594 -0.047,-0.114594 -0.047,-0.114594 -0.0485,-0.113125 -0.0499,-0.113126 -0.0499,-0.113125 -0.0499,-0.113125 -0.0514,-0.111656 -0.0514,-0.113125 -0.0529,-0.110186 -0.0529,-0.111656 -0.0544,-0.111656 -0.0544,-0.110187 -0.0544,-0.110187 -0.0558,-0.108717 -0.0573,-0.110187 -0.0573,-0.108718 -0.0573,-0.108717 -0.0588,-0.107249 -0.0588,-0.108717 -0.0588,-0.107249 -0.0602,-0.107248 -0.0617,-0.105779 -0.0602,-0.10578 -0.0632,-0.105779 -0.0632,-0.105779 -0.0632,-0.10578 -0.0632,-0.10431 -0.0647,-0.10431 -0.0661,-0.102841 -0.0646,-0.102841 -0.0661,-0.102841 -0.0676,-0.102841 -0.0676,-0.102841 -0.069,-0.101371 -0.0676,-0.101372 -0.069,-0.0999 -0.0705,-0.101372 -0.0705,-0.09843 -0.072,-0.0999 -0.072,-0.0999 -0.072,-0.09843 -0.072,-0.09696 -0.0735,-0.09843 -0.0749,-0.09696 -0.0749,-0.09697 -0.0749,-0.09549 -0.0749,-0.09696 -0.0764,-0.09403 -0.0779,-0.09549 -0.0764,-0.09403 -0.0779,-0.09403 -0.0793,-0.09403 -0.0793,-0.09256 -0.0793,-0.09256 -0.0793,-0.09256 -0.0808,-0.09109 -0.0823,-0.09109 -0.0808,-0.09109 -0.0823,-0.08962 -0.0837,-0.08962 -0.0837,-0.08815 -0.0837,-0.08962 -0.0837,-0.08815 -0.0852,-0.08668 -0.0852,-0.08668 -0.0867,-0.08668 -0.0867,-0.08668 -0.0867,-0.08521 -0.0881,-0.08521 -0.0882,-0.08374 -0.0881,-0.08521 -0.0882,-0.08227 -0.0911,-0.08374 -0.0896,-0.08227 -0.0896,-0.0808 -0.0911,-0.08227 -0.0926,-0.0808 -0.0911,-0.07934 -0.0925,-0.0808 -0.0926,-0.07787 -0.094,-0.07933 -0.094,-0.07787 -0.094,-0.07787 -0.0955,-0.0764 -0.0955,-0.0764 -0.0955,-0.07493 -0.097,-0.0764 -0.0955,-0.07346 -0.0984,-0.07493 -0.097,-0.07346 -0.0984,-0.07199 -0.0984,-0.07346 -0.0984,-0.07052 -0.0999,-0.07199 -0.0999,-0.07052 -0.0999,-0.07052 -0.10137,-0.06905 -0.10137,-0.06905 -0.10138,-0.06758 -0.10137,-0.06758 -0.10284,-0.06758 -0.10284,-0.06611 -0.10284,-0.06611 -0.10431,-0.06464 -0.10431,-0.06464 -0.10431,-0.06317 -0.10431,-0.06464 -0.10578,-0.0617 -0.10578,-0.06317 -0.10578,-0.06023 -0.10725,-0.06171 -0.10725,-0.06023 -0.10724,-0.05877 -0.10725,-0.05877 -0.10872,-0.05877 -0.10872,-0.0573 -0.10872,-0.0573 -0.10871,-0.0573 -0.11019,-0.05583 -0.11019,-0.05436 -0.11018,-0.05436 -0.11019,-0.05436 -0.11166,-0.05289 -0.11165,-0.05289 -0.11166,-0.05142 -0.11312,-0.05142 -0.11166,-0.04995 -0.11312,-0.04995 -0.11313,-0.04995 -0.11459,-0.04848 -0.11313,-0.04701 -0.11459,-0.04701 -0.1146,-0.04701 -0.11606,-0.04554 -0.11459,-0.04554 -0.11607,-0.04407 -0.11606,-0.04407 -0.11606,-0.04261 -0.11754,-0.0426 -0.11753,-0.04114 -0.11753,-0.04114 -0.11753,-0.03967 -0.11754,-0.03967 -0.119,-0.03967 -0.11753,-0.0382 -0.119,-0.03673 -0.12047,-0.03673 -0.11901,-0.03673 -0.12047,-0.03526 -0.12047,-0.03379 -0.12047,-0.03379 -0.12047,-0.03379 -0.12194,-0.03232 -0.12047,-0.03085 -0.12194,-0.03085 -0.12194,-0.03085 -0.12194,-0.02938 -0.12341,-0.02938 -0.12341,-0.02791 -0.12194,-0.02645 -0.12488,-0.02644 -0.12341,-0.02644 -0.1234,-0.02498 -0.12488,-0.02351 -0.12488,-0.02351 -0.12488,-0.02351 -0.12488,-0.02204 -0.12488,-0.02057 -0.12634,-0.02057 -0.12635,-0.0191 -0.12635,-0.0191 -0.12635,-0.01763 -0.12634,-0.01763 -0.12782,-0.01763 -0.12635,-0.01469 -0.12781,-0.01469 -0.12782,-0.01469 -0.12782,-0.01322 -0.12781,-0.01322 -0.12929,-0.01175 -0.12929,-0.01028 -0.12781,-0.01028 -0.12929,-0.01028 -0.13075,-0.0088 -0.12929,-0.0073 -0.13075,-0.0073 -0.12929,-0.0059 -0.13076,-0.0059 -0.13075,-0.0044 -0.13075,-0.0029 -0.13076,-0.0029 -0.13222,-0.0029 h -0.13076 l -0.13222,-0.0015 -0.13223,0.0015 h -0.13075 l -0.13223,0.0029 -0.13075,0.0029 -0.13076,0.0029 -0.13075,0.0044 -0.13076,0.0059 -0.13075,0.0059 -0.12929,0.0073 -0.12928,0.0073 -0.12929,0.0088 -0.13075,0.01028 -0.12782,0.01028 -0.12929,0.01028 -0.12928,0.01175 -0.12782,0.01322 -0.12781,0.01322 -0.12782,0.01469 -0.12782,0.01469 -0.12635,0.01469 -0.12781,0.01763 -0.12635,0.01763 -0.12635,0.01763 -0.12634,0.0191 -0.12635,0.0191 -0.12488,0.02057 -0.12635,0.02057 -0.12488,0.02204 -0.12487,0.02351 -0.12488,0.02351 -0.12341,0.02351 -0.12488,0.02498 -0.12341,0.02644 -0.12341,0.02644 -0.12341,0.02645 -0.12341,0.02791 -0.12194,0.02938 -0.12341,0.02938 -0.12194,0.03085 -0.12194,0.03085 -0.12047,0.03085 -0.12194,0.03232 -0.12047,0.03379 -0.12047,0.03379 -0.12047,0.03379 -0.12047,0.03526 -0.119,0.03673 -0.119,0.03673 -0.11901,0.03673 -0.119,0.0382 -0.119,0.03967 -0.11753,0.03967 -0.11753,0.03967 -0.11754,0.04114 -0.11753,0.04114 -0.11606,0.0426 -0.11753,0.04261 -0.1146,0.04407 -0.11606,0.04407 -0.11607,0.04554 -0.11459,0.04554 -0.11459,0.04701 -0.1146,0.04701 -0.11459,0.04701 -0.11313,0.04848 -0.11312,0.04995 -0.11313,0.04995 -0.11312,0.04995 -0.11166,0.05142 -0.11312,0.05142 -0.11019,0.05289 -0.11166,0.05289 -0.11018,0.05436 -0.11166,0.05436 -0.11019,0.05436 -0.10871,0.05583 -0.11019,0.0573 -0.10872,0.0573 -0.10872,0.0573 -0.10724,0.0573 -0.10872,0.06024 -0.10725,0.05877 -0.10578,0.06023 -0.10725,0.06171 -0.10578,0.06023 -0.10578,0.06317 -0.10578,0.0617 -0.10431,0.06464 -0.10577,0.06317 -0.10285,0.06464 -0.10431,0.06464 -0.10284,0.06611 -0.10284,0.06611 -0.10284,0.06758 -0.10284,0.06758 -0.10137,0.06758 -0.10137,0.06905 -0.0999,0.06905 -0.0999,0.07052 -0.0999,0.07052 -0.0999,0.07052 -0.0999,0.07199 -0.0984,0.07346 -0.097,0.07199 -0.0984,0.07346 -0.097,0.07493 -0.097,0.07346 -0.0955,0.0764 -0.0955,0.07493 -0.0955,0.0764 -0.0955,0.0764 -0.094,0.07787 -0.094,0.07787 -0.094,0.07933 -0.0925,0.07787 -0.0926,0.0808 -0.0926,0.07934 -0.0911,0.0808 -0.0911,0.0808 -0.0911,0.08227 -0.0896,0.08227 -0.0896,0.08374 -0.0881,0.08227 -0.0896,0.08521 -0.0881,0.08374 -0.0867,0.08521 -0.0867,0.08521 -0.0867,0.08668 -0.0867,0.08521 -0.0852,0.08815 -0.0852,0.08668 -0.0837,0.08815 -0.0852,0.08962 -0.0823,0.08815 -0.0837,0.08962 -0.0823,0.08962 -0.0808,0.09109 -0.0823,0.09109 -0.0808,0.09109 -0.0793,0.09256 -0.0808,0.09256 -0.0779,0.09256 -0.0793,0.09403 -0.0779,0.09403 -0.0779,0.09403 -0.0764,0.09549 -0.0764,0.09403 -0.0764,0.09696 -0.0749,0.09549 -0.0735,0.09697 -0.0749,0.09696 -0.0734,0.09843 -0.0735,0.09696 -0.072,0.09843 -0.072,0.0999 -0.0705,0.09843 -0.0705,0.0999 -0.0705,0.101372 -0.06905,0.0999 -0.06905,0.101372 -0.06758,0.101371 -0.06758,0.102841 -0.06758,0.102841 -0.06611,0.102841 -0.06611,0.102841 -0.06464,0.102841 -0.06464,0.10431 -0.06464,0.10431 -0.06317,0.10578 -0.0617,0.105779 -0.06317,0.105779 -0.06171,0.10578 -0.06024,0.105779 -0.06024,0.107248 -0.06024,0.107249 -0.05877,0.108717 -0.0573,0.107249 -0.05877,0.108717 -0.05583,0.108718 -0.0573,0.110187 -0.05583,0.108717 -0.05436,0.110187 -0.05436,0.110187 -0.05436,0.111656 -0.05289,0.111656 -0.05289,0.110186 -0.05142,0.113125 -0.05142,0.111656 -0.04995,0.113125 -0.04995,0.113125 -0.04995,0.113126 -0.04848,0.113125 -0.04701,0.114594 -0.04701,0.114594 -0.04701,0.114594 -0.04554,0.114594 -0.04554,0.116064 -0.04407,0.114594 -0.04408,0.116063 -0.0426,0.117533 -0.04261,0.116063 -0.04114,0.117533 -0.04114,0.117532 -0.04114,0.117533 -0.03967,0.117533 -0.0382,0.119001 -0.0382,0.119002 -0.03673,0.119002 -0.0382,0.119001 -0.03526,0.119002 -0.03526,0.120471 -0.03379,0.120471 -0.03526,0.120471 -0.03232,0.12047 -0.03232,0.12194 -0.03232,0.120471 -0.03085,0.12194 -0.02938,0.12194 -0.02938,0.123409 -0.02938,0.12194 -0.02791,0.12341 -0.02791,0.123409 -0.02498,0.123409 -0.02644,0.123409 -0.02497,0.124878 -0.02498,0.12341 -0.02204,0.124878 -0.02351,0.124878 -0.02204,0.124879 -0.02057,0.126347 -0.02057,0.124878 -0.02057,0.126348 -0.01763,0.126347 -0.0191,0.126348 -0.01763,0.126347 -0.01616,0.127817 -0.01616,0.126347 -0.01469,0.127817 -0.01322,0.127817 -0.01469,0.127816 -0.01175,0.129286 -0.01175,0.127817 -0.01175,0.129285 -0.01028,0.129286 -0.0088,0.129286 -0.0088,0.129286 -0.0073,0.129286 -0.0073,0.130755 -0.0059,0.129285 -0.0059,0.130755 -0.0044,0.130755 -0.0044,0.130755 -0.0015,0.130755 -0.0029,0.132224 -0.0015,0.130755 v 0.142508 l -5.876626,-0.0191 v -0.160138 l 0.0015,-0.168953 0.0029,-0.168953 0.0044,-0.167484 0.0044,-0.168953 0.0059,-0.167484 0.0073,-0.167483 0.0073,-0.167484 0.0088,-0.167484 0.01028,-0.166015 0.01175,-0.167484 0.01175,-0.166014 0.01322,-0.166015 0.01322,-0.166015 0.01616,-0.164545 0.01616,-0.166015 0.01763,-0.164546 0.01763,-0.164545 0.0191,-0.164546 0.02057,-0.164545 0.02204,-0.163077 0.02204,-0.163076 0.02351,-0.163076 0.02351,-0.163077 0.02644,-0.163076 0.02644,-0.161607 0.02645,-0.161608 0.02791,-0.161607 0.02938,-0.161607 0.03085,-0.161607 0.03085,-0.160139 0.03232,-0.160138 0.03379,-0.160138 0.03379,-0.158669 0.03526,-0.158669 0.03673,-0.160138 0.03673,-0.157199 0.0382,-0.158669 0.0382,-0.1572 0.04114,-0.1572 0.03967,-0.1572 0.0426,-0.157199 0.04261,-0.155731 0.04407,-0.155731 0.04407,-0.15573 0.04554,-0.154262 0.04701,-0.154261 0.04701,-0.154262 0.04848,-0.154261 0.04848,-0.152792 0.05142,-0.152793 0.04995,-0.152792 0.05289,-0.152792 0.05289,-0.151323 0.05289,-0.151323 0.05583,-0.151324 0.05436,-0.149854 0.0573,-0.149854 0.0573,-0.149854 0.05877,-0.148384 0.05877,-0.148385 0.06024,-0.148385 0.06024,-0.148385 0.0617,-0.146916 0.06317,-0.146915 0.06317,-0.146916 0.06464,-0.145446 0.06464,-0.145447 0.06611,-0.145446 0.06758,-0.143978 0.06758,-0.143977 0.06905,-0.143977 0.06905,-0.142509 0.07052,-0.142508 0.07052,-0.142508 0.07199,-0.141039 0.07199,-0.141039 0.07493,-0.13957 0.07346,-0.141039 0.0764,-0.13957 0.07493,-0.138101 0.07787,-0.13957 0.07787,-0.1381 0.07787,-0.136632 0.07933,-0.136631 0.07934,-0.136632 0.0808,-0.136632 0.08227,-0.135162 0.08227,-0.133693 0.08374,-0.135163 0.08374,-0.133693 0.08521,-0.132224 0.08521,-0.133693 0.08668,-0.132224 0.08668,-0.130755 0.08815,-0.130755 0.08815,-0.130755 0.08962,-0.129286 0.08962,-0.129286 0.09109,-0.129286 0.09256,-0.127816 0.09256,-0.127817 0.09256,-0.126347 0.09403,-0.126348 0.09403,-0.126347 0.09549,-0.124879 0.09696,-0.124878 0.0955,-0.123409 0.09843,-0.123409 0.09843,-0.123409 0.09843,-0.12194 0.0999,-0.120471 0.0999,-0.12194 0.101372,-0.120471 0.101372,-0.119002 0.102841,-0.119002 0.102841,-0.119001 0.10431,-0.117533 0.105779,-0.117532 0.104311,-0.116064 0.105779,-0.116063 0.107248,-0.114594 0.107249,-0.114595 0.108717,-0.114594 0.108718,-0.113125 0.108717,-0.113125 0.110187,-0.111656 0.110187,-0.111656 0.111656,-0.110186 0.111656,-0.110187 0.113125,-0.110187 0.113125,-0.108718 0.114594,-0.107248 0.114594,-0.107248 0.114595,-0.107249 0.116063,-0.105779 0.116063,-0.105779 0.117533,-0.104311 0.117532,-0.10431 0.119002,-0.102841 0.119002,-0.102841 0.120471,-0.101371 0.119001,-0.101372 0.121936,-0.0999 0.12194,-0.0999 0.12194,-0.09843 0.12194,-0.09843 0.12341,-0.09843 0.12488,-0.09549 0.12341,-0.09697 0.12635,-0.09549 0.12488,-0.09403 0.12634,-0.09403 0.12782,-0.09403 0.12635,-0.09109 0.12928,-0.09256 0.12782,-0.09109 0.12929,-0.08962 0.12928,-0.08962 0.13076,-0.08815 0.13075,-0.08815 0.13223,-0.08668 0.13222,-0.08668 0.13222,-0.08521 0.1337,-0.08521 0.13222,-0.08374 0.13516,-0.08374 0.13517,-0.08227 0.13516,-0.08227 0.13516,-0.0808 0.13663,-0.07933 0.13663,-0.07934 0.1381,-0.07786 0.13811,-0.07787 0.1381,-0.07787 0.1381,-0.07493 0.13957,-0.0764 0.14104,-0.07346 0.13957,-0.07346 0.14103,-0.07346 0.14251,-0.07199 0.14104,-0.07052 0.14251,-0.07052 0.14398,-0.06905 0.14251,-0.06905 0.14397,-0.06758 0.14545,-0.06758 0.14398,-0.06611 0.14544,-0.06464 0.14545,-0.06464 0.14692,-0.06317 0.14691,-0.06317 0.14692,-0.06171 0.14838,-0.06023 0.14839,-0.06024 0.14838,-0.05877 0.14839,-0.05877 0.14985,-0.0573 0.14985,-0.05583 0.15133,-0.05583 0.14985,-0.05436 0.15132,-0.05436 0.15133,-0.05289 0.15279,-0.05142 0.15279,-0.05142 0.15279,-0.04995 0.1528,-0.04995 0.15426,-0.04848 0.15426,-0.04701 0.15426,-0.04701 0.15426,-0.04554 0.15573,-0.04408 0.15573,-0.04407 0.15573,-0.04261 0.1572,-0.04114 0.1572,-0.04114 0.1572,-0.03967 0.1572,-0.03967 0.15867,-0.0382 0.1572,-0.03673 0.16014,-0.03673 0.15867,-0.03526 0.15867,-0.03379 0.16014,-0.03379 0.16013,-0.03232 0.16014,-0.03085 0.16161,-0.02938 0.16161,-0.02938 0.1616,-0.02938 0.16161,-0.02644 0.16161,-0.02644 0.16307,-0.02498 0.16308,-0.02498 0.16308,-0.02351 0.16307,-0.02204 0.16308,-0.02204 0.16455,-0.0191 0.16454,-0.02057 0.16455,-0.01763 0.16454,-0.01763 0.16455,-0.01616 0.16601,-0.01469 0.16602,-0.01469 0.16601,-0.01322 0.16602,-0.01175 0.16748,-0.01175 0.16602,-0.01028 0.16748,-0.0088 0.16748,-0.0073 0.16749,-0.0073 0.16748,-0.0059 0.16895,-0.0044 0.16749,-0.0044 0.16895,-0.0015 0.16895,-0.0015 0.16896,-0.0015 z"
         style="fill:#231f20;fill-opacity:1;fill-rule:evenodd;stroke:none;stroke-width:1.46915674"
         id="path26"
         inkscape:connector-curvature="0" />
      <path
         d="m 118.65237,-45.02222 c 0,1.137127 -0.92116,2.058289 -2.05829,2.058289 -1.13566,0 -2.05829,-0.921162 -2.05829,-2.058289 0,-1.137127 0.92263,-2.058289 2.05829,-2.058289 1.13713,0 2.05829,0.921162 2.05829,2.058289"
         style="fill:#55ab56;fill-opacity:1;fill-rule:nonzero;stroke:none;stroke-width:1.46915674"
         id="path30"
         inkscape:connector-curvature="0" />
      <path
         d="m 94.087186,-60.150127 c 0,1.137127 -0.921161,2.058289 -2.058289,2.058289 -1.135658,0 -2.058288,-0.921162 -2.058288,-2.058289 0,-1.137127 0.92263,-2.058289 2.058288,-2.058289 1.137128,0 2.058289,0.921162 2.058289,2.058289"
         style="fill:#404ba7;fill-opacity:1;fill-rule:nonzero;stroke:none;stroke-width:1.46915674"
         id="path34"
         inkscape:connector-curvature="0" />
      <path
         d="m 102.44052,-68.48906 c 0,1.137127 -0.92116,2.058289 -2.05829,2.058289 -1.135657,0 -2.058287,-0.921162 -2.058287,-2.058289 0,-1.137127 0.92263,-2.058289 2.058287,-2.058289 1.13713,0 2.05829,0.921162 2.05829,2.058289"
         style="fill:#e2a412;fill-opacity:1;fill-rule:nonzero;stroke:none;stroke-width:1.46915674"
         id="path38"
         inkscape:connector-curvature="0" />
      <path
         d="m 118.79238,-73.58865 c 0,1.11509 -0.90353,2.018621 -2.01862,2.018621 -1.11509,0 -2.01862,-0.903531 -2.01862,-2.018621 0,-1.11509 0.90353,-2.018621 2.01862,-2.018621 1.11509,0 2.01862,0.903531 2.01862,2.018621"
         style="fill:#ed1c24;fill-opacity:1;fill-rule:nonzero;stroke:none;stroke-width:1.46915674"
         id="path42"
         inkscape:connector-curvature="0" />
      <path
         d="m 146.63437,-56.622682 c 0,1.11509 -0.90353,2.018621 -2.01862,2.018621 -1.11509,0 -2.01862,-0.903531 -2.01862,-2.018621 0,-1.11509 0.90353,-2.018621 2.01862,-2.018621 1.11509,0 2.01862,0.903531 2.01862,2.018621"
         style="fill:#e2a412;fill-opacity:1;fill-rule:nonzero;stroke:none;stroke-width:1.46915674"
         id="path46"
         inkscape:connector-curvature="0" />
      <path
         d="m 133.44222,-50.816721 c 0,1.11509 -0.90353,2.018621 -2.01862,2.018621 -1.11509,0 -2.01862,-0.903531 -2.01862,-2.018621 0,-1.11509 0.90353,-2.018621 2.01862,-2.018621 1.11509,0 2.01862,0.903531 2.01862,2.018621"
         style="fill:#5ccaee;fill-opacity:1;fill-rule:nonzero;stroke:none;stroke-width:1.46915674"
         id="path50"
         inkscape:connector-curvature="0" />
      <path
         d="m 104.6181,-50.816721 c 0,1.137127 -0.92116,2.058289 -2.05829,2.058289 -1.13566,0 -2.05829,-0.921162 -2.05829,-2.058289 0,-1.137127 0.92263,-2.058289 2.05829,-2.058289 1.13713,0 2.05829,0.921162 2.05829,2.058289"
         style="fill:#ed1c24;fill-opacity:1;fill-rule:nonzero;stroke:none;stroke-width:1.46915674"
         id="path54"
         inkscape:connector-curvature="0" />
      <path
         d="m 110.55834,-56.622682 c 0,1.11509 -0.90353,2.018621 -2.01862,2.018621 -1.11509,0 -2.01862,-0.903531 -2.01862,-2.018621 0,-1.11509 0.90353,-2.018621 2.01862,-2.018621 1.11509,0 2.01862,0.903531 2.01862,2.018621"
         style="fill:#5ccaee;fill-opacity:1;fill-rule:nonzero;stroke:none;stroke-width:1.46915674"
         id="path58"
         inkscape:connector-curvature="0" />
      <path
         d="m 118.79238,-59.274509 c 0,1.11509 -0.90353,2.018621 -2.01862,2.018621 -1.11509,0 -2.01862,-0.903531 -2.01862,-2.018621 0,-1.11509 0.90353,-2.018621 2.01862,-2.018621 1.11509,0 2.01862,0.903531 2.01862,2.018621"
         style="fill:#f1a80e;fill-opacity:1;fill-rule:nonzero;stroke:none;stroke-width:1.46915674"
         id="path62"
         inkscape:connector-curvature="0" />
      <path
         d="m 127.18523,-56.622682 c 0,1.11509 -0.90353,2.018621 -2.01862,2.018621 -1.11509,0 -2.01862,-0.903531 -2.01862,-2.018621 0,-1.11509 0.90353,-2.018621 2.01862,-2.018621 1.11509,0 2.01862,0.903531 2.01862,2.018621"
         style="fill:#ed1c24;fill-opacity:1;fill-rule:nonzero;stroke:none;stroke-width:1.46915674"
         id="path66"
         inkscape:connector-curvature="0" />
      <path
         d="m 139.49779,-68.48906 c 0,1.11509 -0.90353,2.018621 -2.01862,2.018621 -1.11509,0 -2.01862,-0.903531 -2.01862,-2.018621 0,-1.11509 0.90353,-2.018621 2.01862,-2.018621 1.11509,0 2.01862,0.903531 2.01862,2.018621"
         style="fill:#4872c1;fill-opacity:1;fill-rule:nonzero;stroke:none;stroke-width:1.46915674"
         id="path70"
         inkscape:connector-curvature="0" />
    </g>
  </g>
</svg>
